<?xml version="1.0" ?><svg id="Layer_1" style="enable-background:new 0 0 1024 1024;" version="1.1" viewBox="0 0 1024 1024" xml:space="preserve" xmlns="http://www.w3.org/2000/svg" xmlns:xlink="http://www.w3.org/1999/xlink"><style type="text/css">
	.st0{fill:none;stroke:#000000;stroke-width:20;stroke-linejoin:round;stroke-miterlimit:10;}
	.st1{fill:none;stroke:#FF2222;stroke-width:20;stroke-miterlimit:10;}
</style><g id="_x32_0"><path class="st0" d="M705.6,593v175.1H181.7V406.6c0-144.7,117.3-262,262-262c72.3,0,137.8,29.3,185.2,76.7   c31.9,31.9,55.6,72,67.7,116.8c-19.5,6.2-37.8,17-53.3,32.5c-51.7,51.7-51.7,135.5,0,187.2C661.1,575.8,682.8,587.5,705.6,593z" id="XMLID_280_"/><path class="st0" d="M771.4,879.3H115.8v-63.8c0-26.2,21.2-47.4,47.4-47.4H724c26.2,0,47.4,21.2,47.4,47.4V879.3z" id="XMLID_257_"/><path class="st1" d="M830.5,558c-33.9,33.9-81.6,45.6-125,35c-22.8-5.5-44.5-17.2-62.3-35   c-51.7-51.7-51.7-135.5,0-187.2c15.5-15.5,33.8-26.3,53.3-32.5c45.7-14.6,97.7-3.8,134,32.5C882.3,422.4,882.3,506.3,830.5,558z" id="XMLID_282_"/><path class="st1" d="M849.8,490.8c0,0,24,43.2,60,36" id="XMLID_270_"/><path class="st1" d="M748.9,375.5c0,0,67.2-38.4,52.8-81.6" id="XMLID_269_"/><path class="st1" d="M669.7,353.9c0,0-40.8-31.2-4.8-57.6" id="XMLID_268_"/><path class="st1" d="M681.7,418.7c0,0,52.8,33.6,14.4,67.2" id="XMLID_267_"/><path class="st1" d="M828.1,435.6c0,0,36-50.4,84-12" id="XMLID_266_"/><path class="st1" d="M640.9,454.8c0,0-64.8-40.8-91.2,4.8" id="XMLID_265_"/><path class="st1" d="M643.3,519.6c0,0-4.8,57.6-43.2,67.2" id="XMLID_264_"/><path class="st1" d="M710,559.1c0,0-23.5,42.1,19.8,85.3" id="XMLID_263_"/><path class="st1" d="M801.7,572.4c0,0,16.8,12,12,50.4" id="XMLID_262_"/><path class="st1" d="M777.6,520.9c0,0-24.2-16.9-4.8-36.3c19.3-19.3,6-39.9,6-39.9" id="XMLID_258_"/><line class="st0" id="XMLID_261_" x1="443.6" x2="443.6" y1="303.6" y2="495.4"/><line class="st0" id="XMLID_272_" x1="377.3" x2="510" y1="368.1" y2="368.1"/><line class="st0" id="XMLID_273_" x1="338.3" x2="549" y1="597.5" y2="597.5"/><line class="st0" id="XMLID_274_" x1="382.7" x2="504.6" y1="660" y2="660"/></g></svg>