<?xml version="1.0" ?><svg id="Layer_1" style="enable-background:new 0 0 64 64;" version="1.1" viewBox="0 0 64 64" xml:space="preserve" xmlns="http://www.w3.org/2000/svg" xmlns:xlink="http://www.w3.org/1999/xlink"><style type="text/css">
	.st0{fill:none;stroke:#000000;stroke-width:2;stroke-linejoin:round;stroke-miterlimit:10;}
</style><path d="M32,4C16.561,4,4,16.561,4,32s12.561,28,28,28s28-12.561,28-28S47.439,4,32,4z M16,46.279l-4.615,1.538  c-2.732-3.552-4.564-7.825-5.164-12.481L16,37.781V46.279z M32,58c-7.619,0-14.482-3.294-19.242-8.532L16,48.388V49  c0,0.552,0.447,1,1,1h30c0.553,0,1-0.448,1-1v-0.612l3.242,1.081C46.482,54.706,39.619,58,32,58z M18,48V35h28v13H18z M48,37.781  l9.779-2.445c-0.599,4.656-2.432,8.93-5.164,12.481L48,46.279V37.781z M57.969,33.227L48,35.719V34c0-0.552-0.447-1-1-1H17  c-0.553,0-1,0.448-1,1v1.719l-9.969-2.492C6.012,32.82,6,32.411,6,32C6,17.664,17.663,6,32,6s26,11.664,26,26  C58,32.411,57.988,32.82,57.969,33.227z"/><path d="M41.5,26c-1.654,0-3-1.346-3-3h-2c0,2.757,2.243,5,5,5s5-2.243,5-5h-2C44.5,24.654,43.154,26,41.5,26z"/><path d="M22.5,26c-1.654,0-3-1.346-3-3h-2c0,2.757,2.243,5,5,5s5-2.243,5-5h-2C25.5,24.654,24.154,26,22.5,26z"/></svg>