<?xml version="1.0" ?><svg id="Layer_1" style="enable-background:new 0 0 1024 1024;" version="1.1" viewBox="0 0 1024 1024" xml:space="preserve" xmlns="http://www.w3.org/2000/svg" xmlns:xlink="http://www.w3.org/1999/xlink"><style type="text/css">
	.st0{fill:none;stroke:#FF2222;stroke-width:20;stroke-miterlimit:10;}
	.st1{fill:none;stroke:#000000;stroke-width:20;stroke-linejoin:round;stroke-miterlimit:10;}
</style><g id="XMLID_320_"><path class="st0" d="M608,405.4v45.9c0,2.6-2.1,4.6-4.6,4.6h-63.8v63.8c0,2.6-2.1,4.6-4.6,4.6H489   c-2.6,0-4.6-2.1-4.6-4.6v-63.8h-63.8c-2.6,0-4.6-2.1-4.6-4.6v-45.9c0-2.6,2.1-4.6,4.6-4.6h63.8V337c0-2.6,2.1-4.6,4.6-4.6H535   c2.6,0,4.6,2.1,4.6,4.6v63.8h63.8C605.9,400.8,608,402.9,608,405.4z" id="XMLID_356_"/><line class="st0" id="XMLID_351_" x1="201.1" x2="325.8" y1="474.5" y2="474.5"/><line class="st0" id="XMLID_349_" x1="201.1" x2="325.8" y1="577.4" y2="577.4"/><line class="st0" id="XMLID_348_" x1="201.1" x2="325.8" y1="680.4" y2="680.4"/><line class="st0" id="XMLID_347_" x1="698.2" x2="822.9" y1="474.5" y2="474.5"/><line class="st0" id="XMLID_345_" x1="698.2" x2="822.9" y1="577.4" y2="577.4"/><line class="st0" id="XMLID_344_" x1="698.2" x2="822.9" y1="680.4" y2="680.4"/><rect class="st1" height="514" id="XMLID_359_" width="372.4" x="325.8" y="255"/><rect class="st1" height="383.1" id="XMLID_358_" width="184.7" x="141.1" y="385.9"/><rect class="st1" height="383.1" id="XMLID_357_" width="184.7" x="698.2" y="385.9"/><line class="st1" id="XMLID_321_" x1="325.8" x2="111.1" y1="385.9" y2="385.9"/><line class="st1" id="XMLID_319_" x1="912.9" x2="698.2" y1="385.9" y2="385.9"/><line class="st1" id="XMLID_318_" x1="728.2" x2="295.8" y1="255" y2="255"/><line class="st1" id="XMLID_352_" x1="111.1" x2="912.9" y1="769" y2="769"/><rect class="st1" height="167.3" id="XMLID_343_" width="182" x="421" y="601.8"/><line class="st1" id="XMLID_342_" x1="392" x2="632" y1="601.8" y2="601.8"/></g></svg>