<?xml version="1.0" ?><svg id="Layer_1" style="enable-background:new 0 0 1024 1024;" version="1.1" viewBox="0 0 1024 1024" xml:space="preserve" xmlns="http://www.w3.org/2000/svg" xmlns:xlink="http://www.w3.org/1999/xlink"><g id="XMLID_230_"><path d="M512,452.9c-45.2,0-82-36.8-82-82s36.8-82,82-82s82,36.8,82,82S557.2,452.9,512,452.9z M512,328.9   c-23.2,0-42,18.8-42,42s18.8,42,42,42c23.2,0,42-18.8,42-42S535.2,328.9,512,328.9z" id="XMLID_7_"/><path d="M589.7,710.1c-28.4,0-51.5-23.1-51.5-51.5V556.5h40v102.1c0,6.4,5.2,11.5,11.5,11.5s11.5-5.2,11.5-11.5   V539.3c0-17.8-14.5-32.3-32.3-32.3H455c-17.8,0-32.3,14.5-32.3,32.3v119.2c0,6.4,5.2,11.5,11.5,11.5c6.4,0,11.5-5.2,11.5-11.5   V556.5h40v102.1c0,28.4-23.1,51.5-51.5,51.5c-28.4,0-51.5-23.1-51.5-51.5V539.3c0-39.8,32.4-72.3,72.3-72.3H569   c39.8,0,72.3,32.4,72.3,72.3v119.2C641.2,687,618.1,710.1,589.7,710.1z" id="XMLID_3_"/><path d="M910.4,445.1L512,172.9L113.6,445.1l-22.6-33l409.7-279.9c6.8-4.6,15.8-4.6,22.6,0l409.7,279.9L910.4,445.1z   " id="XMLID_2_"/><path d="M842,895.3H182c-11,0-20-9-20-20V374.1c0-6.6,3.3-12.8,8.7-16.5l85.8-58.6l244.2-166.8   c6.8-4.6,15.8-4.6,22.6,0L767.4,299l0,0l85.8,58.6c5.5,3.7,8.7,9.9,8.7,16.5v501.2C862,886.4,853,895.3,842,895.3z M548.2,855.3   H822V384.7L744.9,332c0,0,0,0,0,0L512,172.9L279.1,332L202,384.7v470.6h273.7c-16.8-1.7-30-15.9-30-33.2V556.5h40v259h52.3v-259h40   v265.7C578.2,839.4,565,853.6,548.2,855.3z" id="XMLID_4_"/></g></svg>